<?xml version="1.0" standalone="no"?><!DOCTYPE svg PUBLIC "-//W3C//DTD SVG 1.1//EN" "http://www.w3.org/Graphics/SVG/1.1/DTD/svg11.dtd"><svg t="1643425285913" class="icon" viewBox="0 0 1024 1024" version="1.1" xmlns="http://www.w3.org/2000/svg" p-id="4327" width="16" height="16" xmlns:xlink="http://www.w3.org/1999/xlink"><defs><style type="text/css"></style></defs><path d="M939.625 13.598c12.7 0 23.062 10.467 23.062 23.165v500H916.53V108.352c0-26.793-21.734-48.563-48.493-48.563H104.99c-26.758 0-48.492 21.77-48.492 48.563v715.462c0 26.791 21.733 48.563 48.492 48.563h428.587v46.19H33.437c-12.732 0-23.096-10.468-23.096-23.165V36.763c0-12.698 10.362-23.165 23.096-23.165h906.188" p-id="4328"></path><path d="M821.719 583.158V774.06h190.796v46.051H821.719v190.902h-46.156V820.109H584.766v-46.051h190.797v-190.9h46.156m-508.06-377.34h0.35l0.174 0.14c9.209 15.071 81.601 134.386 137.455 226.766l20.232 33.214 21.421-32.375a40966.633 40966.633 0 0 1 77.241-116.942c22.256 33.631 115.058 174.295 143.314 217.276H114.175c17.723-30.144 189.471-312.868 198.683-327.798 0-0.001 0.172-0.281 0.801-0.281" p-id="4329"></path></svg>